<svg xmlns="http://www.w3.org/2000/svg" width="22" height="22" viewBox="0 0 22 22"><defs><style>.a{fill:#424242;}</style></defs><path class="a" d="M11,0A11,11,0,1,0,22,11,11.013,11.013,0,0,0,11,0Zm0,21.043A10.043,10.043,0,1,1,21.043,11,10.055,10.055,0,0,1,11,21.043Z"/><path class="a" d="M98.87,129.435a1.435,1.435,0,1,0-1.435,1.435A1.437,1.437,0,0,0,98.87,129.435Zm-1.913,0a.478.478,0,1,1,.478.478A.479.479,0,0,1,96.957,129.435Z" transform="translate(-90.261 -120.348)"/><path class="a" d="M225.435,128a1.435,1.435,0,1,0,1.435,1.435A1.437,1.437,0,0,0,225.435,128Zm0,1.913a.478.478,0,1,1,.478-.478A.479.479,0,0,1,225.435,129.913Z" transform="translate(-210.609 -120.348)"/><path class="a" d="M4.782,0A6.257,6.257,0,0,0,.122,2.072a.478.478,0,1,0,.713.638,5.321,5.321,0,0,1,7.9,0,.478.478,0,0,0,.713-.638A6.258,6.258,0,0,0,4.782,0Z" transform="translate(15.782 16.261) rotate(180)"/></svg>