<svg xmlns="http://www.w3.org/2000/svg" width="21.8" height="21.8" viewBox="0 0 21.8 21.8"><defs><style>.a{fill:#424242;}</style></defs><path class="a" d="M10.9,0A10.9,10.9,0,1,0,21.8,10.9,10.913,10.913,0,0,0,10.9,0Zm0,20.852A9.952,9.952,0,1,1,20.852,10.9,9.963,9.963,0,0,1,10.9,20.852Z"/><path class="a" d="M98.843,129.422a1.422,1.422,0,1,0-1.422,1.422A1.423,1.423,0,0,0,98.843,129.422Zm-1.9,0a.474.474,0,1,1,.474.474A.475.475,0,0,1,96.948,129.422Z" transform="translate(-90.313 -120.417)"/><path class="a" d="M225.422,128a1.422,1.422,0,1,0,1.422,1.422A1.423,1.423,0,0,0,225.422,128Zm0,1.9a.474.474,0,1,1,.474-.474A.474.474,0,0,1,225.422,129.9Z" transform="translate(-210.73 -120.417)"/><path class="a" d="M108.742,224a6.2,6.2,0,0,0-4.618,2.053.474.474,0,0,0,.706.632,5.272,5.272,0,0,1,7.824,0,.474.474,0,0,0,.706-.632A6.2,6.2,0,0,0,108.742,224Z" transform="translate(-97.842 -210.73)"/></svg>